<svg class="Logo" id="eXAJFrmsfpE1" onload="let svg = document.getElementById('eXAJFrmsfpE1');svg.classList.add('active')" xmlns="http://www.w3.org/2000/svg" xmlns:xlink="http://www.w3.org/1999/xlink" viewBox="0 0 93 96" shape-rendering="geometricPrecision" text-rendering="geometricPrecision" width="93" height="96"><g><path d="M46.415258,96.592741L0,66.192775v-66.84634L45.676588,32.573086L93,-0.653565v66.255173L46.415258,96.592741v-5.95193L88.031595,63.729943L87.967546,8.940801L45.676588,37.676075L3.475296,9.336241L3.113092,63.350375L46.415258,90.59606v5.996681Z" transform="matrix(1 0 0 0.986567 0 0.644786)" fill="#ff9001" stroke="#ff9001" class="svg-elem-1"></path><path d="M46.5,89.741965L0,42.154821L0,48L32.050023,80.39837L46.5,89.741965Z" fill="#ff9001" stroke="#ff9001" class="svg-elem-2"></path><path d="M46.5,89.741965L93,42.154821L93,48Q60.515391,80.39837,60.949977,80.39837t-14.449977,9.343595Z" fill="#ff9001" stroke="#ff9001" class="svg-elem-3"></path><polygon points="0,-31.732805 8.302238,-8.302238 31.732805,0 8.302238,8.302238 0,31.732805 -8.302238,8.302238 -31.732805,0 -8.302238,-8.302238 0,-31.732805" transform="matrix(-.714314 0.005556-.005588-.718445 46.5 29.927966)" fill="#fff" stroke="#fff" class="svg-elem-4 "></polygon></g></svg>